<svg xmlns="http://www.w3.org/2000/svg" width="12.188" height="15" viewBox="0 0 12.188 15"><path d="M59.016,1.875H56.438V1.406A1.406,1.406,0,0,0,55.031,0H53.156A1.406,1.406,0,0,0,51.75,1.406v.469H49.172A1.172,1.172,0,0,0,48,3.047v.937a.469.469,0,0,0,.469.469h11.25a.469.469,0,0,0,.469-.469V3.047A1.172,1.172,0,0,0,59.016,1.875Zm-6.328-.469a.469.469,0,0,1,.469-.469h1.875a.469.469,0,0,1,.469.469v.469H52.688Z" transform="translate(-48)" fill="#999"/><path d="M73.511,184a.146.146,0,0,0-.146.153l.387,8.116a1.4,1.4,0,0,0,1.4,1.339h7.119a1.4,1.4,0,0,0,1.4-1.339l.387-8.116a.146.146,0,0,0-.146-.153Zm7.079,1.172a.469.469,0,1,1,.938,0v6.094a.469.469,0,0,1-.937,0Zm-2.344,0a.469.469,0,1,1,.938,0v6.094a.469.469,0,0,1-.937,0Zm-2.344,0a.469.469,0,1,1,.938,0v6.094a.469.469,0,0,1-.937,0Z" transform="translate(-72.621 -178.609)" fill="#999"/></svg>