<svg xmlns="http://www.w3.org/2000/svg" width="67.16" height="11.455" viewBox="0 0 67.16 11.455"><g opacity="0.2"><path d="M18,20.281H15.566v4.346H13.384v-11.3H17.8a5.545,5.545,0,0,1,3.355.878,2.971,2.971,0,0,1,1.181,2.54,2.958,2.958,0,0,1-.608,1.9,3.841,3.841,0,0,1-1.695,1.177l2.82,4.706v.1H20.515ZM15.565,18.7h2.242a2.677,2.677,0,0,0,1.725-.5,1.665,1.665,0,0,0,.621-1.37,1.759,1.759,0,0,0-.573-1.4,2.611,2.611,0,0,0-1.712-.512h-2.3Z" transform="translate(-13.384 -13.327)" fill="#010303"/><path d="M60.765,33.046a4.6,4.6,0,0,1-3.23-1.129A3.874,3.874,0,0,1,56.3,28.91v-.233a4.619,4.619,0,0,1,.539-2.247,3.851,3.851,0,0,1,1.513-1.541,4.338,4.338,0,0,1,2.173-.551,3.867,3.867,0,0,1,2.945,1.094,4.321,4.321,0,0,1,1.039,3.1v.761h-6.1a2.4,2.4,0,0,0,.772,1.645,2.459,2.459,0,0,0,1.7.605,2.955,2.955,0,0,0,2.346-1.048l1.13.97a3.685,3.685,0,0,1-1.5,1.168A5.125,5.125,0,0,1,60.765,33.046Zm-.25-7.195a1.859,1.859,0,0,0-1.393.543,2.673,2.673,0,0,0-.677,1.513h3.993v-.14a2.161,2.161,0,0,0-.561-1.432A1.856,1.856,0,0,0,60.515,25.852Z" transform="translate(-45.591 -21.591)" fill="#010303"/><path d="M100.654,30.609a.838.838,0,0,0-.461-.768,5.288,5.288,0,0,0-1.531-.466,8.5,8.5,0,0,1-1.785-.512,2.073,2.073,0,0,1-.552-3.8,4.331,4.331,0,0,1,2.587-.73,4.511,4.511,0,0,1,2.7.745,2.285,2.285,0,0,1,1.03,1.932h-2.1a1.115,1.115,0,0,0-.448-.9,1.841,1.841,0,0,0-1.19-.361,2.009,2.009,0,0,0-1.125.287.881.881,0,0,0-.435.768.748.748,0,0,0,.405.675,6,6,0,0,0,1.638.485,8.364,8.364,0,0,1,1.936.582,2.68,2.68,0,0,1,1.043.811,1.915,1.915,0,0,1,.341,1.149,2.128,2.128,0,0,1-1.043,1.835,4.811,4.811,0,0,1-2.734.7,5.286,5.286,0,0,1-2.044-.373,3.312,3.312,0,0,1-1.4-1.024,2.263,2.263,0,0,1-.5-1.4h2.035a1.288,1.288,0,0,0,.56,1.028,2.353,2.353,0,0,0,1.371.361,2.3,2.3,0,0,0,1.259-.283A.855.855,0,0,0,100.654,30.609Z" transform="translate(-74.634 -21.591)" fill="#010303"/><path d="M137.264,33.046a4.6,4.6,0,0,1-3.23-1.129A3.874,3.874,0,0,1,132.8,28.91v-.233a4.619,4.619,0,0,1,.539-2.247,3.851,3.851,0,0,1,1.513-1.541,4.338,4.338,0,0,1,2.173-.551,3.867,3.867,0,0,1,2.945,1.094,4.321,4.321,0,0,1,1.039,3.1v.761h-6.1a2.4,2.4,0,0,0,.772,1.645,2.459,2.459,0,0,0,1.7.605,2.955,2.955,0,0,0,2.346-1.048l1.13.97a3.685,3.685,0,0,1-1.5,1.168A5.126,5.126,0,0,1,137.264,33.046Zm-.25-7.195a1.859,1.859,0,0,0-1.393.543,2.673,2.673,0,0,0-.677,1.513h3.993v-.14a2.161,2.161,0,0,0-.561-1.432A1.856,1.856,0,0,0,137.013,25.852Z" transform="translate(-103.002 -21.591)" fill="#010303"/><path d="M175.059,24.494l.06.97a3.517,3.517,0,0,1,2.716-1.125q2.915,0,2.967,3v5.549h-2.1V27.451a1.614,1.614,0,0,0-.384-1.184,1.724,1.724,0,0,0-1.255-.384,2.056,2.056,0,0,0-1.889,1.032v5.976h-2.1v-8.4Z" transform="translate(-133.238 -21.591)" fill="#010303"/><path d="M217.509,30.609a.838.838,0,0,0-.461-.768,5.29,5.29,0,0,0-1.531-.466,8.5,8.5,0,0,1-1.785-.512,2.073,2.073,0,0,1-.552-3.8,4.331,4.331,0,0,1,2.587-.73,4.51,4.51,0,0,1,2.7.745,2.285,2.285,0,0,1,1.031,1.932h-2.1a1.115,1.115,0,0,0-.449-.9,1.842,1.842,0,0,0-1.19-.361,2.009,2.009,0,0,0-1.125.287.881.881,0,0,0-.435.768.748.748,0,0,0,.405.675,6,6,0,0,0,1.638.485,8.361,8.361,0,0,1,1.936.582,2.678,2.678,0,0,1,1.044.811,1.915,1.915,0,0,1,.341,1.149,2.128,2.128,0,0,1-1.044,1.835,4.811,4.811,0,0,1-2.733.7,5.286,5.286,0,0,1-2.044-.373,3.312,3.312,0,0,1-1.4-1.024,2.263,2.263,0,0,1-.5-1.4h2.035a1.287,1.287,0,0,0,.56,1.028,2.353,2.353,0,0,0,1.371.361,2.3,2.3,0,0,0,1.259-.283A.855.855,0,0,0,217.509,30.609Z" transform="translate(-162.333 -21.591)" fill="#010303"/><path d="M254.118,33.046a4.605,4.605,0,0,1-3.229-1.129,3.874,3.874,0,0,1-1.237-3.007v-.233a4.622,4.622,0,0,1,.539-2.247,3.851,3.851,0,0,1,1.514-1.541,4.337,4.337,0,0,1,2.173-.551,3.867,3.867,0,0,1,2.945,1.094,4.321,4.321,0,0,1,1.039,3.1v.761h-6.1a2.4,2.4,0,0,0,.772,1.645,2.459,2.459,0,0,0,1.7.605,2.955,2.955,0,0,0,2.345-1.048l1.13.97a3.686,3.686,0,0,1-1.5,1.168A5.125,5.125,0,0,1,254.118,33.046Zm-.25-7.195a1.859,1.859,0,0,0-1.393.543,2.674,2.674,0,0,0-.677,1.513h3.993v-.14a2.16,2.16,0,0,0-.56-1.432A1.857,1.857,0,0,0,253.868,25.852Z" transform="translate(-190.701 -21.591)" fill="#010303"/></g></svg>