<svg id="search_3_" data-name="search (3)" xmlns="http://www.w3.org/2000/svg" width="18.267" height="18.267" viewBox="0 0 18.267 18.267">
  <path id="Контур_62" data-name="Контур 62" d="M4.048,144.374l-.636,2.374-2.324.049a9.15,9.15,0,0,1-.067-8.529h0l2.069.379L4,140.7a5.451,5.451,0,0,0,.051,3.67Z" transform="translate(0 -133.335)" fill="#fbbb00"/>
  <path id="Контур_63" data-name="Контур 63" d="M270.4,208.176A9.13,9.13,0,0,1,267.145,217h0l-2.606-.133-.369-2.3a5.444,5.444,0,0,0,2.342-2.78h-4.884v-3.613H270.4Z" transform="translate(-252.294 -200.749)" fill="#518ef8"/>
  <path id="Контур_64" data-name="Контур 64" d="M44.272,314.626h0a9.136,9.136,0,0,1-13.763-2.794l2.96-2.423A5.432,5.432,0,0,0,41.3,312.19Z" transform="translate(-29.421 -298.37)" fill="#28b446"/>
  <path id="Контур_65" data-name="Контур 65" d="M42.566,2.1,39.607,4.525A5.431,5.431,0,0,0,31.6,7.369L28.625,4.933h0A9.135,9.135,0,0,1,42.566,2.1Z" transform="translate(-27.603)" fill="#f14336"/>
</svg>
