<svg xmlns="http://www.w3.org/2000/svg" width="20.367" height="20.367" viewBox="0 0 20.367 20.367">
  <g id="_013-clock" data-name="013-clock" transform="translate(0.25 0.25)">
    <path id="Контур_41" data-name="Контур 41" d="M9.933,19.867a9.933,9.933,0,1,1,9.933-9.933A9.944,9.944,0,0,1,9.933,19.867Zm0-18.625a8.692,8.692,0,1,0,8.692,8.692A8.7,8.7,0,0,0,9.933,1.242Zm0,0" transform="translate(0 0)" fill="#484848" stroke="#484848" stroke-width="0.5"/>
    <path id="Контур_42" data-name="Контур 42" d="M244.967,112.714a.616.616,0,0,1-.439-.182l-4.346-4.346a.621.621,0,0,1-.182-.439v-5.795a.621.621,0,0,1,1.242,0v5.537l4.164,4.164a.621.621,0,0,1-.439,1.06Zm0,0" transform="translate(-230.687 -97.4)" fill="#484848" stroke="#484848" stroke-width="0.5"/>
  </g>
</svg>
