<svg xmlns="http://www.w3.org/2000/svg" width="18.267" height="18.277" viewBox="0 0 18.267 18.277">
  <g id="copy-symbol-of-two-filled-paper-sheets" transform="translate(-0.272)">
    <path id="Контур_105" data-name="Контур 105" d="M428.505,5.48a.562.562,0,0,0-.562-.562h-3.868a.562.562,0,0,1-.562-.562V.562A.562.562,0,0,0,422.95,0h-4.034a.843.843,0,0,0-.844.844v2.94a.3.3,0,0,1,.024.024l3.283,3.283a1.386,1.386,0,0,1,.409.988h0v5.684h5.87a.843.843,0,0,0,.844-.844V5.48Z" transform="translate(-409.967)" fill="#afafaf"/>
    <path id="Контур_106" data-name="Контур 106" d="M769.952.172a.281.281,0,0,0-.48.2V3.653a.281.281,0,0,0,.281.281h3.283a.281.281,0,0,0,.2-.48Z" transform="translate(-754.779 -0.087)" fill="#afafaf"/>
    <path id="Контур_107" data-name="Контур 107" d="M1.116,254.563H9.861a.843.843,0,0,0,.844-.844v-7.364a.562.562,0,0,0-.562-.562H6.3a.562.562,0,0,1-.562-.562v-3.868a.562.562,0,0,0-.562-.562H1.116a.832.832,0,0,0-.844.675V253.55a1.286,1.286,0,0,0,.075.45A.811.811,0,0,0,1.116,254.563Z" transform="translate(0 -236.286)" fill="#afafaf"/>
    <path id="Контур_108" data-name="Контур 108" d="M352.05,244.645h3.283a.281.281,0,0,0,.281-.281.277.277,0,0,0-.082-.2l-2.518-2.52-.763-.763a.272.272,0,0,0-.2-.082.281.281,0,0,0-.283.281v3.283h0A.279.279,0,0,0,352.05,244.645Z" transform="translate(-344.909 -236.286)" fill="#afafaf"/>
  </g>
</svg>
