<svg xmlns="http://www.w3.org/2000/svg" width="16.05" height="24.224" viewBox="0 0 16.05 24.224">
  <path id="_007-grapes" data-name="007-grapes" d="M102.434,13.554a3.154,3.154,0,0,0-2.513-3.084,3.146,3.146,0,0,0-4.8-3.307V3.148a1.731,1.731,0,0,1,1.729-1.729.71.71,0,0,0,0-1.419A3.15,3.15,0,0,0,94.1,1.612a3.529,3.529,0,0,0-.306-.35A5.182,5.182,0,0,0,90.336,0a.71.71,0,0,0-.691.691,5.181,5.181,0,0,0,1.262,3.46A4.773,4.773,0,0,0,93.7,5.373v1.79a3.146,3.146,0,0,0-4.8,3.307,3.149,3.149,0,0,0,0,6.167A3.146,3.146,0,0,0,91.335,20.4a3.148,3.148,0,1,0,6.148,0,3.146,3.146,0,0,0,2.438-3.761A3.154,3.154,0,0,0,102.434,13.554Zm-3.858,3.761a1.729,1.729,0,1,1-3.292-.738,3.155,3.155,0,0,0,1.525-.99h.076a3.155,3.155,0,0,0,1.525.99A1.718,1.718,0,0,1,98.576,17.315Zm-2.438,3.761a1.729,1.729,0,1,1-3.292-.738,3.155,3.155,0,0,0,1.525-.99h.076a3.155,3.155,0,0,0,1.525.99A1.717,1.717,0,0,1,96.138,21.076Zm-4.167-2.032a1.728,1.728,0,0,1-1.563-2.466,3.155,3.155,0,0,0,1.525-.99h.076a3.155,3.155,0,0,0,1.525.99,1.728,1.728,0,0,1-1.563,2.466Zm-2.438-3.761a1.729,1.729,0,1,1,1.729-1.729A1.731,1.731,0,0,1,89.532,15.283Zm.71-5.49a1.729,1.729,0,1,1,3.292.738,3.155,3.155,0,0,0-1.525.99h-.076a3.155,3.155,0,0,0-1.525-.99A1.718,1.718,0,0,1,90.242,9.793Zm8.334,0a1.718,1.718,0,0,1-.166.738,3.155,3.155,0,0,0-1.525.99H96.81a3.155,3.155,0,0,0-1.525-.99,1.729,1.729,0,1,1,3.292-.738Zm-4.167,5.49a1.729,1.729,0,1,1,1.729-1.729A1.731,1.731,0,0,1,94.409,15.283Zm3.148-1.729a1.729,1.729,0,1,1,1.729,1.729A1.731,1.731,0,0,1,97.557,13.554ZM91.91,3.147a3.136,3.136,0,0,1-.772-1.653,3.143,3.143,0,0,1,1.654.772,3.137,3.137,0,0,1,.773,1.654A3.137,3.137,0,0,1,91.91,3.147Z" transform="translate(-86.384)" fill="#484848"/>
</svg>
