<svg id="_008-temperature" data-name="008-temperature" xmlns="http://www.w3.org/2000/svg" width="11.474" height="25.02" viewBox="0 0 11.474 25.02">
  <path id="Контур_39" data-name="Контур 39" d="M76.942,14.726V3.475a3.475,3.475,0,0,0-6.95,0V14.726a5.737,5.737,0,1,0,6.95,0ZM73.467,23.52a4.233,4.233,0,0,1-2.314-7.779.75.75,0,0,0,.339-.627V3.475a1.975,1.975,0,0,1,3.95,0V15.114a.75.75,0,0,0,.339.627,4.233,4.233,0,0,1-2.314,7.779Z" transform="translate(-67.73)" fill="#484848"/>
  <path id="Контур_40" data-name="Контур 40" d="M103.408,73.086V63.174a.75.75,0,0,0-1.5,0v9.912a2.493,2.493,0,1,0,1.5,0Z" transform="translate(-96.921 -56.181)" fill="#484848"/>
</svg>
