<svg xmlns="http://www.w3.org/2000/svg" width="18.049" height="17.707" viewBox="0 0 18.049 17.707">
  <g id="_002-shopping-bags" data-name="002-shopping-bags" transform="translate(0.101 0.1)">
    <g id="Group_3" data-name="Group 3" transform="translate(0 0)">
      <g id="Group_2" data-name="Group 2">
        <path id="Path_1" data-name="Path 1" d="M17.732,9.981a.4.4,0,0,0-.33-.11H12.667V7.779a3.744,3.744,0,1,0-7.487,0V9.871H.445c-.132,0-.264,0-.33.11a.374.374,0,0,0-.11.33L1.656,19.34a2.687,2.687,0,0,0,2.6,2.2h9.337a2.709,2.709,0,0,0,2.6-2.224l1.652-9.007A.374.374,0,0,0,17.732,9.981ZM6.06,7.779a2.863,2.863,0,1,1,5.725,0V9.871H6.06Zm9.249,11.429a1.762,1.762,0,0,1-1.718,1.453H4.255a1.762,1.762,0,0,1-1.718-1.453L.974,10.751h15.9Z" transform="translate(0 -4.035)" fill="#af1111" stroke="#af1111" stroke-width="0.2"/>
      </g>
    </g>
  </g>
</svg>
