<?xml version="1.0" encoding="utf-8"?>
<!-- Generator: Adobe Illustrator 23.1.0, SVG Export Plug-In . SVG Version: 6.00 Build 0)  -->
<!DOCTYPE svg PUBLIC "-//W3C//DTD SVG 1.1//EN" "http://www.w3.org/Graphics/SVG/1.1/DTD/svg11.dtd" [
	<!ENTITY ns_extend "http://ns.adobe.com/Extensibility/1.0/">
	<!ENTITY ns_ai "http://ns.adobe.com/AdobeIllustrator/10.0/">
	<!ENTITY ns_graphs "http://ns.adobe.com/Graphs/1.0/">
	<!ENTITY ns_vars "http://ns.adobe.com/Variables/1.0/">
	<!ENTITY ns_imrep "http://ns.adobe.com/ImageReplacement/1.0/">
	<!ENTITY ns_sfw "http://ns.adobe.com/SaveForWeb/1.0/">
	<!ENTITY ns_custom "http://ns.adobe.com/GenericCustomNamespace/1.0/">
	<!ENTITY ns_adobe_xpath "http://ns.adobe.com/XPath/1.0/">
]>
<svg version="1.1" id="Слой_1" xmlns:x="&ns_extend;" xmlns:i="&ns_ai;" xmlns:graph="&ns_graphs;"
	 xmlns="http://www.w3.org/2000/svg" xmlns:xlink="http://www.w3.org/1999/xlink" x="0px" y="0px" viewBox="0 0 18.1079998 19.132"
	 style="enable-background:new 0 0 18.1079998 19.132;" xml:space="preserve">
<style type="text/css">
	.st0{fill:#484848;}
</style>
<metadata>
	<sfw  xmlns="&ns_sfw;">
		<slices></slices>
		<sliceSourceBounds  bottomLeftOrigin="true" height="19.1328125" width="18.108736" x="-0.0009766" y="-0.0009155">
			</sliceSourceBounds>
	</sfw>
</metadata>
<path class="st0" d="M18.0322266,12.7618217c-0.0839844-0.1679688-0.2275391-0.2929688-0.4052734-0.3525391
	c-0.0556641-0.0185547-0.1152344-0.0302734-0.1738281-0.0341797l-0.0019531-0.0009766
	c0.2988281-1.8647461,0.2988281-3.7524414,0-5.6166992c0.3642578-0.0253906,0.6533203-0.3295898,0.6533203-0.7001953
	c0-0.074707-0.0126953-0.1494141-0.0361328-0.2216797l-0.7353516-2.2128906
	c-0.0957031-0.2875977-0.3642578-0.4804688-0.6669922-0.4804688h-0.2158203
	c-0.3916016-0.9833984-0.8808594-1.9321289-1.4560547-2.8217773c-0.1298828-0.2006836-0.3496094-0.3203125-0.5888672-0.3203125
	H3.7050781c-0.2392578,0-0.4589844,0.1196289-0.5888672,0.3203125C2.5419922,1.2076225,2.0517578,2.156353,1.6577148,3.1421928
	H1.4428711c-0.3027344,0-0.5703125,0.1928711-0.6665039,0.4804688L0.0405273,5.8365288
	c-0.059082,0.1782227-0.0454102,0.3686523,0.0390625,0.5366211C0.1635742,6.5406303,0.3076172,6.6651421,0.484375,6.7237358
	C0.5385742,6.7418022,0.5947266,6.753521,0.6523438,6.7579155c-0.2998047,1.8647461-0.2998047,3.7519531,0,5.6162109
	c-0.3642578,0.0253906-0.6533203,0.3300781-0.6533203,0.7011719c0,0.0751953,0.0117188,0.1494141,0.0351563,0.2207031
	l0.7363281,2.2138672c0.0952148,0.2880859,0.3632813,0.4814453,0.6665039,0.4814453h0.2148438
	c0.3920898,0.9824219,0.8823242,1.9306641,1.4580078,2.8212891c0.1303711,0.2001953,0.3505859,0.3203125,0.5893555,0.3203125
	h10.7001953c0.2392578,0,0.4589844-0.1201172,0.5888672-0.3212891c0.5761719-0.8916016,1.0664063-1.8408203,1.4570313-2.8203125
	h0.2158203c0.3037109,0,0.5712891-0.1933594,0.6660156-0.4804688l0.7441406-2.2128906
	C18.1308594,13.1202202,18.1171875,12.9297905,18.0322266,12.7618217z M14.9296875,15.9893608
	c-0.2646484,0.5966797-0.5712891,1.1796875-0.9121094,1.7373047h-1.890625
	c0.3056641-0.5625,0.5791016-1.1464844,0.8144531-1.7373047H14.9296875z M11.4248047,15.9903374
	c-0.2675781,0.6015625-0.5742188,1.1845703-0.9130859,1.7373047H9.7597656v-1.7373047H11.4248047z M8.3598633,15.9893608v1.7373047
	H7.6079102c-0.3408203-0.5566406-0.6469727-1.1396484-0.9121094-1.7373047H8.3598633z M5.9848633,17.7266655H4.0898438
	c-0.3408203-0.5576172-0.6469727-1.1416016-0.9116211-1.7373047h1.9916992
	C5.40625,16.5801811,5.6796875,17.1641655,5.9848633,17.7266655z M3.1787109,3.1382866
	c0.2646484-0.597168,0.5703125-1.1801758,0.9111328-1.7382813h1.887207C5.671875,1.9634819,5.3984375,2.5464897,5.1621094,3.1382866
	H3.1787109z M6.6884766,3.1421928c0.2651367-0.5991211,0.5708008-1.1835938,0.9116211-1.7421875h0.7519531v1.7421875H6.6884766z
	 M9.7524414,1.4000053h0.7514648c0.3417969,0.5585938,0.6474609,1.1420898,0.9121094,1.7382813H9.7558594L9.7524414,1.4000053z
	 M12.1269531,1.4000053h1.890625c0.3398438,0.5556641,0.6455078,1.1401367,0.9121094,1.7412109h-1.9873047
	C12.7060547,2.5484428,12.4326172,1.9644585,12.1269531,1.4000053z M16.4306641,13.7745171l-0.2626953,0.8105469H1.9472656
	l-0.269043-0.8105469H16.4306641z M4.1660156,12.3711967H2.0805664c-0.3261719-1.8623047-0.3261719-3.7495117,0-5.6123047h2.0854492
	C3.8666992,8.6221733,3.8666992,10.5088921,4.1660156,12.3711967z M5.5893555,6.7588921h2.7626953v5.6123047H5.5893555
	C5.2631836,10.5088921,5.2631836,8.621685,5.5893555,6.7588921z M9.7548828,6.7588921h2.7626953
	c0.3261719,1.862793,0.3261719,3.75,0,5.6123047H9.7558594L9.7548828,6.7588921z M16.0273438,12.3711967h-2.0869141
	c0.2998047-1.8623047,0.2998047-3.7490234,0-5.6123047h2.0869141C16.3535156,8.621685,16.3535156,10.5088921,16.0273438,12.3711967z
	 M1.6782227,5.35606l0.269043-0.8110352h14.2128906L16.4296875,5.35606H1.6782227z"/>
</svg>
