<svg xmlns="http://www.w3.org/2000/svg" width="36.198" height="37.238" viewBox="0 0 36.198 37.238"><g transform="translate(-4.611 0)"><path d="M221.389,33.442A18.107,18.107,0,0,0,210.531,16.85a1.693,1.693,0,0,0-1.356,3.1,14.718,14.718,0,0,1,3.074,25.161l1.15-5.78a1.693,1.693,0,0,0-3.32-.661l-1.886,9.479a1.693,1.693,0,0,0,1.33,1.99L219,52.028a1.693,1.693,0,0,0,.66-3.32l-5.191-1.032A18.113,18.113,0,0,0,221.389,33.442Z" transform="translate(-180.58 -14.822)" fill="#af1111"/><path d="M13.931,14.718a1.691,1.691,0,0,0,1.99-1.33l1.885-9.479a1.693,1.693,0,0,0-1.33-1.99L7,.033a1.693,1.693,0,1,0-.661,3.32l5.2,1.033a18.1,18.1,0,0,0,3.936,30.825,1.693,1.693,0,0,0,1.355-3.1,14.716,14.716,0,0,1-3.074-25.16L12.6,12.727A1.693,1.693,0,0,0,13.931,14.718Z" transform="translate(0 0)" fill="#af1111"/></g></svg>