<svg xmlns="http://www.w3.org/2000/svg" width="21.533" height="12.836" viewBox="0 0 21.533 12.836"><g transform="translate(0 -98.725)" opacity="0.6"><path d="M10.767,98.725c-4.114,0-7.845,2.251-10.6,5.907a.852.852,0,0,0,0,1.018c2.753,3.66,6.484,5.911,10.6,5.911s7.845-2.251,10.6-5.907a.852.852,0,0,0,0-1.018C18.612,100.976,14.881,98.725,10.767,98.725Zm.3,10.937a4.529,4.529,0,1,1,4.224-4.224A4.532,4.532,0,0,1,11.062,109.662Zm-.137-2.088A2.439,2.439,0,1,1,13.2,105.3,2.435,2.435,0,0,1,10.925,107.574Z" transform="translate(0 0)" fill="#fff"/></g></svg>