<svg xmlns="http://www.w3.org/2000/svg" width="15.609" height="10.995" viewBox="0 0 15.609 10.995"><g transform="matrix(0.719, 0.695, -0.695, 0.719, 7.668, -1.93)"><path d="M0,1.049A4.715,4.715,0,0,0,.386,1.9a.323.323,0,0,0,.352.146A3.672,3.672,0,0,0,3.1.31Q3.16.156,3.21,0A8.434,8.434,0,0,1,0,1.049Z" transform="translate(4.862 7.758)" fill="#fff"/><path d="M.359,4.677S.5,4.661.711,4.66A7.162,7.162,0,0,1,2.535.734,8.386,8.386,0,0,1,3.268.083,2.707,2.707,0,0,0,1.986.069C.946.277.458,1.4.224,2.428A9.709,9.709,0,0,0,0,4.355.324.324,0,0,0,.359,4.677Z" transform="translate(1.575 1.162)" fill="#fff"/><path d="M3.7,1.64c-.187.006-.461.009-.648,0A.97.97,0,0,1,2.137.722c-.007-.128-.01-.374,0-.648A5.245,5.245,0,0,1,.387.006.324.324,0,0,0,0,.324,2.23,2.23,0,0,0,.614,1.968c.411.381.812.783,1.193,1.193a2.23,2.23,0,0,0,1.644.614.324.324,0,0,0,.317-.387A5.247,5.247,0,0,1,3.7,1.64Z" transform="translate(0 7.264)" fill="#fff"/><path d="M7.066,3.649A4.385,4.385,0,0,1,3.629.216c0-.017,0-.007,0-.216A8.18,8.18,0,0,0,1.791,1.37,7.258,7.258,0,0,0,.025,5.985a9.131,9.131,0,0,0-.018.982.324.324,0,0,0,.305.305A10.327,10.327,0,0,0,2.25,7.145,7.063,7.063,0,0,0,5.465,5.877a6.094,6.094,0,0,0,.459-.4A8.2,8.2,0,0,0,7.273,3.664Z" transform="translate(2.777 0.984)" fill="#fff"/><path d="M3.967,1.053A1.331,1.331,0,0,0,3.7.348c-.356-.413-1.177-.379-1.717-.3A7.78,7.78,0,0,0,0,.66v.5A3.787,3.787,0,0,0,2.836,3.988l.477.034A6.217,6.217,0,0,0,3.967,1.053ZM1.6,2.006a.323.323,0,1,1,.47-.348A.323.323,0,0,1,1.6,2.006Z" transform="translate(7.052 0)" fill="#fff"/></g></svg>