<svg xmlns="http://www.w3.org/2000/svg" width="14.026" height="13.133" viewBox="0 0 14.026 13.133"><g transform="translate(0 -16.308)"><g transform="translate(0.877 23.304)"><path d="M32,271.692v5.26a.877.877,0,0,0,.877.877H37.26v-6.136Z" transform="translate(-32 -271.692)" fill="#fff"/></g><g transform="translate(0 16.308)"><path d="M13.15,19.8H10.376a3.406,3.406,0,0,0,.489-.392,1.832,1.832,0,0,0,0-2.579,1.852,1.852,0,0,0-2.571,0A4.819,4.819,0,0,0,7.045,19.8H6.982a4.829,4.829,0,0,0-1.249-2.971,1.854,1.854,0,0,0-2.571,0,1.835,1.835,0,0,0,0,2.579,3.469,3.469,0,0,0,.49.392H.877A.878.878,0,0,0,0,20.674v1.315a.438.438,0,0,0,.438.438h5.7V20.674H7.89v1.753h5.7a.438.438,0,0,0,.438-.438V20.674A.878.878,0,0,0,13.15,19.8Zm-7.065-.029a.289.289,0,0,1-.162.029,4.311,4.311,0,0,1-2.14-1.01.956.956,0,0,1,0-1.343.934.934,0,0,1,1.328,0C5.7,18.039,6.289,19.557,6.085,19.769ZM8.1,19.8c-.124,0-.161-.028-.161-.029-.2-.211.383-1.73.974-2.324a.944.944,0,1,1,1.328,1.343A4.31,4.31,0,0,1,8.1,19.8Z" transform="translate(0 -16.308)" fill="#fff"/></g><g transform="translate(7.89 23.304)"><path d="M288,271.692v6.136h4.383a.877.877,0,0,0,.877-.877v-5.26Z" transform="translate(-288 -271.692)" fill="#fff"/></g></g></svg>