<svg xmlns="http://www.w3.org/2000/svg" width="23.912" height="23.912" viewBox="0 0 23.912 23.912"><g transform="translate(0.1 0.1)"><path d="M18.521,23.711H5.189A5.2,5.2,0,0,1,0,18.521V5.189A5.2,5.2,0,0,1,5.189,0H18.521a5.2,5.2,0,0,1,5.19,5.19V18.521A5.2,5.2,0,0,1,18.521,23.711ZM5.189,1.388a3.8,3.8,0,0,0-3.8,3.8V18.521a3.8,3.8,0,0,0,3.8,3.8H18.521a3.8,3.8,0,0,0,3.8-3.8V5.189a3.8,3.8,0,0,0-3.8-3.8Zm0,0" transform="translate(0.001 0.001)" fill="#888" stroke="#888" stroke-width="0.2"/><path d="M108.767,115.917a7.15,7.15,0,1,1,7.15-7.15A7.158,7.158,0,0,1,108.767,115.917Zm0-12.91a5.76,5.76,0,1,0,5.76,5.76A5.767,5.767,0,0,0,108.767,103.006Zm0,0" transform="translate(-96.911 -96.911)" fill="#888" stroke="#888" stroke-width="0.2"/><path d="M395,79.884a.921.921,0,1,1,.8-.46A.915.915,0,0,1,395,79.884Zm0,0" transform="translate(-375.825 -74.427)" fill="#888" stroke="#888" stroke-width="0.2"/></g></svg>