<svg xmlns="http://www.w3.org/2000/svg" width="19" height="23.814" viewBox="0 0 19 23.814"><g transform="translate(-49.299 0)"><g transform="translate(49.299 0)"><path d="M58.46.006a9.5,9.5,0,0,0-8.989,11.3h0s.015.1.063.3a9.522,9.522,0,0,0,.64,1.885c.952,2.256,3.154,6.03,8.1,10.137a.825.825,0,0,0,1.055,0c4.941-4.1,7.143-7.876,8.1-10.141a9.118,9.118,0,0,0,.64-1.885c.044-.19.063-.3.063-.3h0A9.505,9.505,0,0,0,58.46.006ZM58.8,14.224A4.614,4.614,0,1,1,63.411,9.61,4.614,4.614,0,0,1,58.8,14.224Z" transform="translate(-49.299 0)" fill="#af1111"/></g></g></svg>