<svg xmlns="http://www.w3.org/2000/svg" width="19.52" height="18.26" viewBox="0 0 19.52 18.26">
  <g id="XMLID_923_" transform="translate(0 12.627) rotate(-69)">
    <path id="XMLID_935_" d="M7.875,10.046a1.265,1.265,0,0,1-.631.137c-1.6,0-4.144-1.687-5.362-2.9A7.109,7.109,0,0,1,.369,5.172,4.061,4.061,0,0,1,0,3.471,3.8,3.8,0,0,1,1.127.871,2.961,2.961,0,0,1,6.161,3.323,9.877,9.877,0,0,0,7.931,9.829l0,0a.146.146,0,0,1,.016.115A.156.156,0,0,1,7.875,10.046ZM3.256,1.408a1.48,1.48,0,1,0,1.48,1.48A1.482,1.482,0,0,0,3.256,1.408Z" transform="translate(2.768 2.768)" fill="#fff"/>
    <ellipse id="XMLID_936_" cx="0.558" cy="0.558" rx="0.558" ry="0.558" transform="translate(5.466 5.098)" fill="#fff"/>
    <path id="XMLID_947_" d="M13.5,13.148a2.552,2.552,0,0,1-.653,1.432c-1.348,1.348-3.336,1.5-5.748.439A16.06,16.06,0,0,1,2.692,12,8.133,8.133,0,0,1,0,6.2,6.355,6.355,0,0,1,.565,3.67,6.762,6.762,0,0,1,1.938,1.682,5.694,5.694,0,0,1,5.984,0h0a5.735,5.735,0,0,1,5.687,6.421,7.212,7.212,0,0,0,1.379,4.723,3.019,3.019,0,0,1,.445,2ZM9.844,6.2a3.882,3.882,0,0,0-6.6-3.214,4.728,4.728,0,0,0-1.4,3.239,4.976,4.976,0,0,0,.447,2.087A8.018,8.018,0,0,0,4,10.7c1.318,1.318,4.056,3.175,6.014,3.175a2.173,2.173,0,0,0,1.078-.253,1.085,1.085,0,0,0,.52-.665,1.061,1.061,0,0,0-.116-.829l-.007-.012A9.019,9.019,0,0,1,9.844,6.2Z" transform="translate(0 0)" fill="#fff"/>
  </g>
</svg>
