<?xml version="1.0" encoding="utf-8"?>
<!-- Generator: Adobe Illustrator 23.1.0, SVG Export Plug-In . SVG Version: 6.00 Build 0)  -->
<!DOCTYPE svg PUBLIC "-//W3C//DTD SVG 1.1//EN" "http://www.w3.org/Graphics/SVG/1.1/DTD/svg11.dtd" [
	<!ENTITY ns_extend "http://ns.adobe.com/Extensibility/1.0/">
	<!ENTITY ns_ai "http://ns.adobe.com/AdobeIllustrator/10.0/">
	<!ENTITY ns_graphs "http://ns.adobe.com/Graphs/1.0/">
	<!ENTITY ns_vars "http://ns.adobe.com/Variables/1.0/">
	<!ENTITY ns_imrep "http://ns.adobe.com/ImageReplacement/1.0/">
	<!ENTITY ns_sfw "http://ns.adobe.com/SaveForWeb/1.0/">
	<!ENTITY ns_custom "http://ns.adobe.com/GenericCustomNamespace/1.0/">
	<!ENTITY ns_adobe_xpath "http://ns.adobe.com/XPath/1.0/">
]>
<svg version="1.1" id="Слой_1" xmlns:x="&ns_extend;" xmlns:i="&ns_ai;" xmlns:graph="&ns_graphs;"
	 xmlns="http://www.w3.org/2000/svg" xmlns:xlink="http://www.w3.org/1999/xlink" x="0px" y="0px" viewBox="0 0 22.75 17.3929996"
	 style="enable-background:new 0 0 22.75 17.3929996;" xml:space="preserve">
<style type="text/css">
	.st0{fill:#484848;}
</style>
<metadata>
	<sfw  xmlns="&ns_sfw;">
		<slices></slices>
		<sliceSourceBounds  bottomLeftOrigin="true" height="17.3925781" width="22.7554092" x="-0.0031626" y="0.0003052">
			</sliceSourceBounds>
	</sfw>
</metadata>
<path class="st0" d="M20.7666016,5.8409367c-0.3349609-0.1225586-0.6845703-0.1845703-1.0400391-0.1845703
	c-0.0009766,0-0.0029297,0-0.0039063,0h-0.0009766c-0.0029297,0-0.0058594,0-0.0087891,0
	c-0.328125,0-0.6523438,0.0537109-0.9648438,0.159668v-5.815918h-6.6171875l0.7255859,1.7426758l0.0039063,0.0195313
	c0.3486328,0.8129883-0.0283203,1.7583008-0.8398438,2.1074219c-0.8139648,0.3481445-1.7583008-0.0283203-2.1074219-0.840332
	C9.7397461,2.6270695,9.7397461,2.1656437,9.9135742,1.7618351l0.7280273-1.7617188H4v5.815918
	C3.2597656,5.5635929,2.4633789,5.6070499,1.7514648,5.9366398C1.0180664,6.2774601,0.4609375,6.8829288,0.1831055,7.6426945
	c-0.2783203,0.7592773-0.2436523,1.581543,0.0966797,2.3154297c0.340332,0.7333984,0.9458008,1.2900391,1.7055664,1.5683594
	C2.6347656,11.7647648,3.3476563,11.7735538,4,11.549921v5.8427734h6.6166992l-0.7250977-1.7431641l-0.0039063-0.0195313
	c-0.1694336-0.3935547-0.1748047-0.8291016-0.0161133-1.2275391c0.1586914-0.3974609,0.4628906-0.7099609,0.855957-0.8789063
	c0.394043-0.1689453,0.8305664-0.1757813,1.2280273-0.0166016c0.3979492,0.1582031,0.7104492,0.4619141,0.8793945,0.8554688
	c0.1728516,0.4033203,0.1728516,0.8652344,0,1.2675781l-0.7001953,1.6933594l-0.0292969,0.0693359h6.6435547V11.549921
	c0.7392578,0.2529297,1.5341797,0.2119141,2.2480469-0.1191406c0.734375-0.3398438,1.2919922-0.9453125,1.5703125-1.7045898
	C23.1416016,8.1588078,22.3330078,6.4156437,20.7666016,5.8409367z M19.7216797,10.2833195l-0.0498047-0.0009766v0.0048828
	c-0.2001953-0.0068359-0.4013672-0.0507813-0.5849609-0.1298828l-1.6933594-0.7006836L17.3242188,9.428339v6.5424805h-3.0957031
	c0.2519531-0.7402344,0.2099609-1.5361328-0.1201172-2.2480469c-0.3408203-0.734375-0.9462891-1.2910156-1.7060547-1.5693359
	c-0.7617188-0.2783203-1.5825195-0.2441406-2.3154297,0.0966797c-0.7338867,0.3408203-1.2910156,0.9462891-1.5688477,1.7060547
	c-0.2373047,0.6494141-0.2451172,1.3613281-0.0239258,2.0146484H5.4248047v-6.543457l-1.7426758,0.7250977l-0.0195313,0.0039063
	c-0.8149414,0.3457031-1.7587891-0.0283203-2.1074219-0.8398438c-0.3491211-0.8129883,0.0273438-1.7583008,0.840332-2.1074219
	C2.7978516,7.0352726,3.2597656,7.0357609,3.6630859,7.209589l1.7617188,0.7280273V1.4229679h3.0961914
	c-0.5268555,1.550293,0.2807617,3.2514648,1.8266602,3.8173828c1.5678711,0.5742188,3.3105469-0.2348633,3.8837891-1.8027344
	c0.2382813-0.6489258,0.2460938-1.3613281,0.0234375-2.0146484h3.0703125v6.5166016l1.7431641-0.7246094l0.0205078-0.0039063
	c0.8095703-0.3583984,1.7578125,0.0136719,2.1132813,0.8222656c0.3554688,0.8100586-0.0136719,1.7583008-0.8232422,2.1142578
	c-0.2011719,0.0888672-0.4238281,0.1357422-0.6435547,0.1357422C19.7304688,10.2833195,19.7265625,10.2833195,19.7216797,10.2833195
	z"/>
</svg>
