<svg xmlns="http://www.w3.org/2000/svg" width="61.133" height="61.133" viewBox="0 0 61.133 61.133"><path d="M52.181,8.953A30.567,30.567,0,0,0,8.953,52.181,30.567,30.567,0,1,0,52.181,8.953Zm-21.614,48.6A26.985,26.985,0,1,1,57.551,30.567,27.015,27.015,0,0,1,30.567,57.551Z" fill="#63df36"/><g transform="translate(15.439 20.235)"><path d="M159.032,169.992a1.791,1.791,0,0,0-2.533,0l-15.816,15.816-8.325-8.325a1.791,1.791,0,0,0-2.533,2.533l9.592,9.592a1.791,1.791,0,0,0,2.533,0l17.082-17.082A1.791,1.791,0,0,0,159.032,169.992Z" transform="translate(-129.301 -169.467)" fill="#63df36"/></g></svg>