<svg xmlns="http://www.w3.org/2000/svg" width="67.666" height="60.201" viewBox="0 0 67.666 60.201">
  <g id="Сгруппировать_144" data-name="Сгруппировать 144" transform="translate(-502.134 -353.253)">
    <path id="heart" d="M33.833,60.2a3.968,3.968,0,0,1-2.616-.983c-2.734-2.39-5.369-4.636-7.694-6.618l-.012-.01c-6.817-5.809-12.7-10.826-16.8-15.768C2.133,31.3,0,26.058,0,20.336A21.149,21.149,0,0,1,5.368,5.892,18.2,18.2,0,0,1,18.9,0,17.02,17.02,0,0,1,29.535,3.67a21.752,21.752,0,0,1,4.3,4.488,21.754,21.754,0,0,1,4.3-4.488A17.02,17.02,0,0,1,48.764,0,18.2,18.2,0,0,1,62.3,5.892a21.149,21.149,0,0,1,5.367,14.444c0,5.723-2.132,10.961-6.711,16.485-4.1,4.943-9.982,9.959-16.8,15.768-2.329,1.984-4.969,4.234-7.709,6.63a3.971,3.971,0,0,1-2.615.982ZM18.9,3.964A14.275,14.275,0,0,0,8.282,8.578,17.2,17.2,0,0,0,3.963,20.336c0,4.813,1.789,9.118,5.8,13.957,3.877,4.678,9.643,9.591,16.319,15.281l.012.01c2.334,1.989,4.98,4.244,7.733,6.652,2.77-2.412,5.42-4.671,7.759-6.663,6.676-5.69,12.441-10.6,16.318-15.28,4.01-4.839,5.8-9.144,5.8-13.957A17.2,17.2,0,0,0,59.384,8.578,14.274,14.274,0,0,0,48.764,3.964a13.146,13.146,0,0,0-8.207,2.841A19.234,19.234,0,0,0,35.982,12.1a2.5,2.5,0,0,1-4.3,0A19.216,19.216,0,0,0,27.11,6.805,13.146,13.146,0,0,0,18.9,3.964Zm0,0" transform="translate(502.134 353.253)" fill="#f1f1f1"/>
    <path id="Контур_90" data-name="Контур 90" d="M9375.951,3342.133,9366,3352.548l13.275,7.471-10.193,12,6.869,12.452" transform="translate(-8839.984 -2976.542)" fill="none" stroke="#f1f1f1" stroke-linecap="round" stroke-linejoin="round" stroke-width="4"/>
  </g>
</svg>
