<svg xmlns="http://www.w3.org/2000/svg" width="15.183" height="18.198" viewBox="0 0 15.183 18.198"><g opacity="0.3"><path d="M91.415,8.767a4.241,4.241,0,0,0,3.1-1.284,4.242,4.242,0,0,0,1.284-3.1,4.242,4.242,0,0,0-1.284-3.1,4.382,4.382,0,0,0-6.2,0,4.241,4.241,0,0,0-1.284,3.1,4.241,4.241,0,0,0,1.284,3.1A4.243,4.243,0,0,0,91.415,8.767ZM89.07,2.038a3.316,3.316,0,0,1,4.69,0,3.169,3.169,0,0,1,.972,2.345,3.169,3.169,0,0,1-.972,2.345,3.315,3.315,0,0,1-4.69,0A3.168,3.168,0,0,1,88.1,4.383a3.169,3.169,0,0,1,.972-2.345Zm0,0" transform="translate(-83.938 0)" fill="#6e0000"/><path d="M15.146,252.519A10.826,10.826,0,0,0,15,251.37a9.06,9.06,0,0,0-.283-1.156,5.711,5.711,0,0,0-.475-1.078,4.064,4.064,0,0,0-.717-.934,3.16,3.16,0,0,0-1.03-.647,3.558,3.558,0,0,0-1.314-.238,1.334,1.334,0,0,0-.712.3c-.214.139-.463.3-.742.478a4.254,4.254,0,0,1-.96.423,3.729,3.729,0,0,1-2.349,0,4.237,4.237,0,0,1-.96-.423c-.276-.176-.526-.338-.743-.479a1.332,1.332,0,0,0-.712-.3,3.554,3.554,0,0,0-1.314.238,3.157,3.157,0,0,0-1.03.647,4.066,4.066,0,0,0-.716.934,5.722,5.722,0,0,0-.475,1.078,9.084,9.084,0,0,0-.283,1.156,10.753,10.753,0,0,0-.147,1.15c-.024.348-.036.709-.036,1.075a3.022,3.022,0,0,0,.9,2.286,3.23,3.23,0,0,0,2.313.843h8.763a3.231,3.231,0,0,0,2.313-.843,3.021,3.021,0,0,0,.9-2.286c0-.367-.012-.728-.037-1.075Zm-1.6,2.589a2.175,2.175,0,0,1-1.577.55H3.21a2.175,2.175,0,0,1-1.577-.55,1.973,1.973,0,0,1-.566-1.514c0-.341.011-.678.034-1a9.7,9.7,0,0,1,.133-1.036,8.009,8.009,0,0,1,.249-1.019,4.657,4.657,0,0,1,.387-.877,3.013,3.013,0,0,1,.527-.69,2.1,2.1,0,0,1,.685-.426,2.454,2.454,0,0,1,.84-.162c.037.02.1.058.212.128.219.143.472.306.751.484a5.287,5.287,0,0,0,1.205.539,4.795,4.795,0,0,0,3,0A5.292,5.292,0,0,0,10.3,249c.286-.183.531-.341.751-.484.108-.07.174-.108.212-.128a2.456,2.456,0,0,1,.84.162,2.1,2.1,0,0,1,.685.426,3.006,3.006,0,0,1,.527.69,4.644,4.644,0,0,1,.387.876,8,8,0,0,1,.249,1.019,9.78,9.78,0,0,1,.133,1.036h0c.023.322.034.659.034,1a1.973,1.973,0,0,1-.566,1.514Zm0,0" transform="translate(0 -238.526)" fill="#6e0000"/></g></svg>