<svg xmlns="http://www.w3.org/2000/svg" width="26.46" height="20.041" viewBox="0 0 26.46 20.041"><path d="M198.381,109.855l-5.846-3.2a1.074,1.074,0,0,0-1.589.942v6.342a1.072,1.072,0,0,0,1.582.946l5.846-3.143a1.074,1.074,0,0,0,.007-1.888Zm-5.884,3.288V108.4l4.369,2.391Zm0,0" transform="translate(-181.078 -101.018)" fill="#888"/><path d="M26.265,4.73V4.718A6.051,6.051,0,0,0,25.1,1.647,4.306,4.306,0,0,0,22.245.31L22.114.294l-.046,0C18.57.035,13.287,0,13.234,0h-.009c-.053,0-5.336.035-8.865.289l-.047,0L4.189.309A4.2,4.2,0,0,0,1.354,1.688,6.342,6.342,0,0,0,.2,4.7l0,.027C.186,4.819,0,6.928,0,9.047v1.98c0,2.118.187,4.228.195,4.317v.013A5.992,5.992,0,0,0,1.357,18.39,4.394,4.394,0,0,0,4.3,19.708c.108.012.2.023.263.034l.061.008c2.02.192,8.352.287,8.621.291h.016c.053,0,5.336-.035,8.834-.289l.046,0,.148-.017A4.1,4.1,0,0,0,25.1,18.385a6.341,6.341,0,0,0,1.157-3.015l0-.027c.008-.089.195-2.2.195-4.316V9.047c0-2.118-.187-4.228-.195-4.316Zm-1.356,6.3c0,1.96-.171,3.979-.187,4.165a4.923,4.923,0,0,1-.761,2.148,2.55,2.55,0,0,1-1.83.849l-.165.019c-3.383.245-8.467.282-8.7.284-.263,0-6.5-.1-8.461-.281-.1-.016-.209-.029-.323-.042A2.9,2.9,0,0,1,2.5,17.339l-.014-.015A4.467,4.467,0,0,1,1.738,15.2c-.012-.14-.188-2.183-.188-4.171V9.047c0-1.958.171-3.975.187-4.164A4.823,4.823,0,0,1,2.5,2.734,2.675,2.675,0,0,1,4.367,1.85l.126-.015c3.433-.246,8.553-.282,8.736-.284s5.3.038,8.7.284l.136.016a2.777,2.777,0,0,1,1.9.86l.006.007a4.539,4.539,0,0,1,.746,2.158c.012.132.188,2.179.188,4.172Zm0,0" transform="translate(0.001 0)" fill="#888"/></svg>