<svg xmlns="http://www.w3.org/2000/svg" width="62.001" height="43.75" viewBox="0 0 62.001 43.75">
    <g transform="translate(0.5 -66.504)">
        <g transform="translate(0 67.004)">
            <path d="M58.93,86.057l-4.154-1.8L51.248,77.4a5.554,5.554,0,0,0-5-3.037H40.176V72.642A5.6,5.6,0,0,0,34.593,67H5.557A5.589,5.589,0,0,0,0,72.642V98.927A3.424,3.424,0,0,0,3.378,102.4h.776c0,.136-.014.191-.014.272a7.055,7.055,0,0,0,14.109.054v-.068a2.118,2.118,0,0,0-.014-.272H41.7v.272a7.055,7.055,0,0,0,14.109.054v-.34h1.757A3.435,3.435,0,0,0,61,98.94V89.216A3.415,3.415,0,0,0,58.93,86.057Zm-47.72,20.987a4.331,4.331,0,1,1,4.331-4.331A4.324,4.324,0,0,1,11.209,107.043ZM37.453,99.7H17.6a7.045,7.045,0,0,0-12.774,0H3.433a.705.705,0,0,1-.708-.749V91.94H37.453Zm0-27.047V89.216H2.724V72.656a2.866,2.866,0,0,1,2.833-2.914H34.593a2.886,2.886,0,0,1,2.86,2.9Zm2.724,4.44H46.25a2.874,2.874,0,0,1,2.588,1.539l2.724,5.27H40.176Zm8.594,29.948a4.331,4.331,0,1,1,4.331-4.331A4.324,4.324,0,0,1,48.77,107.043Zm9.52-8.09a.705.705,0,0,1-.708.749H55.157a7.049,7.049,0,0,0-12.774,0H40.176V86.629H53.523l4.331,1.907a.8.8,0,0,1,.436.735Z" transform="translate(0 -67.004)" fill="#af1111" stroke="#af1111" stroke-width="1" />
        </g>
    </g>
</svg>