<svg xmlns="http://www.w3.org/2000/svg" width="16" height="11" viewBox="0 0 16 11">
  <g id="email" transform="translate(0 -80)">
    <g id="Сгруппировать_128" data-name="Сгруппировать 128" transform="translate(10.606 82.028)">
      <g id="Сгруппировать_127" data-name="Сгруппировать 127">
        <path id="Контур_82" data-name="Контур 82" d="M339.392,148.45l5.394,3.41V144.9Z" transform="translate(-339.392 -144.896)" fill="#afafaf"/>
      </g>
    </g>
    <g id="Сгруппировать_130" data-name="Сгруппировать 130" transform="translate(0 82.028)">
      <g id="Сгруппировать_129" data-name="Сгруппировать 129">
        <path id="Контур_83" data-name="Контур 83" d="M0,144.9v6.964l5.394-3.41Z" transform="translate(0 -144.896)" fill="#afafaf"/>
      </g>
    </g>
    <g id="Сгруппировать_132" data-name="Сгруппировать 132" transform="translate(0.03 80)">
      <g id="Сгруппировать_131" data-name="Сгруппировать 131">
        <path id="Контур_84" data-name="Контур 84" d="M15.93,80h-14a.988.988,0,0,0-.97.851L8.93,86.1l7.97-5.251A.988.988,0,0,0,15.93,80Z" transform="translate(-0.96 -80)" fill="#afafaf"/>
      </g>
    </g>
    <g id="Сгруппировать_134" data-name="Сгруппировать 134" transform="translate(0.032 86.185)">
      <g id="Сгруппировать_133" data-name="Сгруппировать 133">
        <path id="Контур_85" data-name="Контур 85" d="M10.682,277.921l-1.415.932a.5.5,0,0,1-.55,0L7.3,277.92l-6.278,3.971a.986.986,0,0,0,.968.844h14a.986.986,0,0,0,.968-.844Z" transform="translate(-1.024 -277.92)" fill="#afafaf"/>
      </g>
    </g>
  </g>
</svg>
