<?xml version="1.0" encoding="utf-8"?>
<!-- Generator: Adobe Illustrator 23.1.0, SVG Export Plug-In . SVG Version: 6.00 Build 0)  -->
<!DOCTYPE svg PUBLIC "-//W3C//DTD SVG 1.1//EN" "http://www.w3.org/Graphics/SVG/1.1/DTD/svg11.dtd" [
	<!ENTITY ns_extend "http://ns.adobe.com/Extensibility/1.0/">
	<!ENTITY ns_ai "http://ns.adobe.com/AdobeIllustrator/10.0/">
	<!ENTITY ns_graphs "http://ns.adobe.com/Graphs/1.0/">
	<!ENTITY ns_vars "http://ns.adobe.com/Variables/1.0/">
	<!ENTITY ns_imrep "http://ns.adobe.com/ImageReplacement/1.0/">
	<!ENTITY ns_sfw "http://ns.adobe.com/SaveForWeb/1.0/">
	<!ENTITY ns_custom "http://ns.adobe.com/GenericCustomNamespace/1.0/">
	<!ENTITY ns_adobe_xpath "http://ns.adobe.com/XPath/1.0/">
]>
<svg version="1.1" id="Слой_1" xmlns:x="&ns_extend;" xmlns:i="&ns_ai;" xmlns:graph="&ns_graphs;"
	 xmlns="http://www.w3.org/2000/svg" xmlns:xlink="http://www.w3.org/1999/xlink" x="0px" y="0px"
	 viewBox="0 0 23.7119999 23.7119999" style="enable-background:new 0 0 23.7119999 23.7119999;" xml:space="preserve">
<style type="text/css">
	.st0{fill:#AF1111;}
</style>
<metadata>
	<sfw  xmlns="&ns_sfw;">
		<slices></slices>
		<sliceSourceBounds  bottomLeftOrigin="true" height="23.7109985" width="23.7109985" x="0.0009766" y="0"></sliceSourceBounds>
	</sfw>
</metadata>
<g>
	<path class="st0" d="M18.5219727,0.0010014H5.1900024C2.3267212,0.0070438,0.0070801,2.326685,0.0009766,5.1899662v13.3320313
		c0.0054932,2.8637085,2.3253174,5.18396,5.1890259,5.1900024h13.3319702
		c2.8640747-0.0054932,5.1845093-2.3259277,5.1900024-5.1900024V5.1910038
		C23.7064819,2.3269291,21.3860474,0.0064945,18.5219727,0.0010014z M22.3220215,18.5219975
		c0,2.0986938-1.701355,3.7999878-3.8000488,3.7999878H5.1900024c-2.0986938,0-3.7999878-1.7012939-3.7999878-3.7999878V5.1889896
		c0-2.0986938,1.7012939-3.7999878,3.7999878-3.7999878l13.3319702,0.0009766c2.0986938,0,3.8000488,1.701355,3.8000488,3.7999878
		V18.5219975z"/>
	<path class="st0" d="M16.0699463,4.2262211H12.619751c-0.0004883,0-0.0004883,0-0.0009766,0
		c-1.7514648,0-3.1787109,1.4248047-3.1806641,3.1767578v2.7441406H7.7808838c-0.3911133,0-0.7099609,0.3183594-0.7109375,0.7099609
		v2.9609375c0.0014648,0.390625,0.3203125,0.7080078,0.7109375,0.7080078h1.6572266v5.2099609
		c0,0.3916016,0.3188477,0.7109375,0.7109375,0.7109375h2.9599609c0.3916016,0,0.7109375-0.3193359,0.7109375-0.7109375v-5.2099609
		h1.6582031c0.3369141,0,0.6298828-0.2402344,0.6972656-0.5712891l0.5898438-2.9580078
		c0.0371094-0.1860352,0-0.3754883-0.1064453-0.5336914c-0.1054688-0.1577148-0.265625-0.2651367-0.4521484-0.3022461
		c-0.0449219-0.0092773-0.0917969-0.0136719-0.1386719-0.0136719h-2.2480469V8.608057h2.25
		c0.3916016,0,0.7109375-0.3188477,0.7109375-0.7109375V4.936182C16.7808838,4.5445805,16.4615479,4.2262211,16.0699463,4.2262211z
		 M15.3590088,7.186182h-2.25c-0.3920898,0-0.7109375,0.3188477-0.7109375,0.7109375v2.9599609
		c0,0.3920898,0.3188477,0.7109375,0.7109375,0.7109375h2.0957031l-0.3095703,1.5390625h-1.7861328
		c-0.3920898,0-0.7109375,0.3193359-0.7109375,0.7109375v5.2080078h-1.5380859V13.818018
		c0-0.3916016-0.3188477-0.7109375-0.7109375-0.7109375H8.4908447V11.568018h1.6582031
		c0.3920898,0,0.7109375-0.3188477,0.7109375-0.7109375V7.4034672c0.0014648-0.96875,0.7900391-1.7563477,1.7587891-1.7563477
		c0.0004883,0,0.0009766,0,0.0009766,0h2.7392578V7.186182z"/>
</g>
</svg>
