<svg xmlns="http://www.w3.org/2000/svg" width="18.133" height="16.133" viewBox="0 0 18.133 16.133"><path d="M9.067,16.133a1.063,1.063,0,0,1-.7-.263C7.633,15.229,6.927,14.627,6.3,14.1l0,0A38.346,38.346,0,0,1,1.8,9.868,6.749,6.749,0,0,1,0,5.45,5.668,5.668,0,0,1,1.439,1.579,4.876,4.876,0,0,1,5.066,0,4.561,4.561,0,0,1,7.915.984a5.829,5.829,0,0,1,1.152,1.2,5.83,5.83,0,0,1,1.152-1.2A4.561,4.561,0,0,1,13.068,0a4.876,4.876,0,0,1,3.627,1.579A5.667,5.667,0,0,1,18.133,5.45a6.748,6.748,0,0,1-1.8,4.418,38.342,38.342,0,0,1-4.5,4.225c-.624.532-1.332,1.135-2.066,1.777a1.064,1.064,0,0,1-.7.263Zm-4-15.07A3.826,3.826,0,0,0,2.219,2.3,4.61,4.61,0,0,0,1.062,5.45,5.679,5.679,0,0,0,2.616,9.19a37.735,37.735,0,0,0,4.373,4.1l0,0c.625.533,1.334,1.137,2.072,1.783.742-.646,1.452-1.252,2.079-1.786A37.745,37.745,0,0,0,15.517,9.19a5.679,5.679,0,0,0,1.554-3.74A4.61,4.61,0,0,0,15.914,2.3a3.825,3.825,0,0,0-2.846-1.237,3.523,3.523,0,0,0-2.2.761A5.154,5.154,0,0,0,9.643,3.242a.67.67,0,0,1-1.152,0A5.15,5.15,0,0,0,7.265,1.824a3.523,3.523,0,0,0-2.2-.761Zm0,0" transform="translate(0 0)" fill="#6e0000" opacity="0.3"/></svg>