<?xml version="1.0" encoding="utf-8"?>
<!-- Generator: Adobe Illustrator 23.1.0, SVG Export Plug-In . SVG Version: 6.00 Build 0)  -->
<!DOCTYPE svg PUBLIC "-//W3C//DTD SVG 1.1//EN" "http://www.w3.org/Graphics/SVG/1.1/DTD/svg11.dtd" [
	<!ENTITY ns_extend "http://ns.adobe.com/Extensibility/1.0/">
	<!ENTITY ns_ai "http://ns.adobe.com/AdobeIllustrator/10.0/">
	<!ENTITY ns_graphs "http://ns.adobe.com/Graphs/1.0/">
	<!ENTITY ns_vars "http://ns.adobe.com/Variables/1.0/">
	<!ENTITY ns_imrep "http://ns.adobe.com/ImageReplacement/1.0/">
	<!ENTITY ns_sfw "http://ns.adobe.com/SaveForWeb/1.0/">
	<!ENTITY ns_custom "http://ns.adobe.com/GenericCustomNamespace/1.0/">
	<!ENTITY ns_adobe_xpath "http://ns.adobe.com/XPath/1.0/">
]>
<svg version="1.1" id="Слой_1" xmlns:x="&ns_extend;" xmlns:i="&ns_ai;" xmlns:graph="&ns_graphs;"
	 xmlns="http://www.w3.org/2000/svg" xmlns:xlink="http://www.w3.org/1999/xlink" x="0px" y="0px"
	 viewBox="0 0 14.3579998 18.7870007" style="enable-background:new 0 0 14.3579998 18.7870007;" xml:space="preserve">
<style type="text/css">
	.st0{fill:#484848;}
</style>
<metadata>
	<sfw  xmlns="&ns_sfw;">
		<slices></slices>
		<sliceSourceBounds  bottomLeftOrigin="true" height="18.7880249" width="14.3574219" x="0" y="-0.0011597"></sliceSourceBounds>
	</sfw>
</metadata>
<path class="st0" d="M10.171875,7.5382214c1.9355469-1.5200195,3.0556641-3.7929688,3.0859375-6.2490234h1.0996094V0.0001354H0
	v1.2890625h1.1005859C1.1298828,3.7462292,2.2519531,6.020155,4.1835938,7.53578
	c0.8056641,0.734375,1.2612305,1.1826172,1.2612305,1.8574219c0,0.6728516-0.4555664,1.121582-1.2553711,1.8520508
	c-1.9384766,1.5205078-3.0605469,3.7958984-3.0888672,6.2548828H0v1.2880249h14.3574219v-1.2880249h-1.0996094
	c-0.0302734-2.4580078-1.1513672-4.7324219-3.0830078-6.2470703c-0.8056641-0.734375-1.2617188-1.1831055-1.2617188-1.8569336
	C8.9130859,8.7193737,9.3681641,8.2711315,10.171875,7.5382214z M11.9638672,1.2891979
	c-0.0361328,0.8012695-0.1904297,1.5878906-0.4599609,2.3408203H2.8535156
	c-0.2700195-0.753418-0.4243164-1.5400391-0.4589844-2.3408203H11.9638672z M8.2578125,13.5372448
	c-0.140625-0.0576172-0.2871094-0.1044922-0.4375-0.1396484v-2.9887695c0.2900391,0.6948242,0.8564453,1.2202148,1.453125,1.7641602
	l0.0371094,0.0371094c0.8720703,0.7001953,1.5771484,1.5996094,2.0507813,2.6113281L8.2578125,13.5372448z M7.7200317,9.3932018
	V9.3930187C7.7200317,9.3930798,7.7200317,9.3931408,7.7200317,9.3932018L7.7200317,9.3932018z M5.0473633,12.2071667
	l0.0141602-0.0126953c0.6015625-0.5488281,1.1796875-1.0761719,1.4731445-1.7792969v2.9794922
	c-0.1499023,0.0351563-0.296875,0.0820313-0.4379883,0.1396484l-3.1030273,1.2851563
	C3.4677734,13.806776,4.1743164,12.907362,5.0473633,12.2071667z M6.6350098,9.3932018c0-0.000061,0-0.0001221,0-0.0001831
	V9.3932018L6.6350098,9.3932018z M7.9067383,8.1998425H6.4511719C6.0888672,7.5728893,5.6166992,7.0265026,5.0493164,6.5763073
	c-0.578125-0.4868164-1.0908203-1.0449219-1.5273438-1.6611328h7.3178711
	C10.4013672,5.5333385,9.8886719,6.091444,9.3144531,6.5743542C8.7431641,7.0265026,8.2695313,7.5733776,7.9067383,8.1998425z
	 M2.3959961,17.5001354c0.0195313-0.3642578,0.0605469-0.7285156,0.1220703-1.0859375l4.074707-1.6855469
	c0.3706055-0.1572266,0.7983398-0.1572266,1.1723633,0l4.0737305,1.6855469
	c0.0615234,0.359375,0.1035156,0.7246094,0.1230469,1.0859375H2.3959961z"/>
</svg>
