<?xml version="1.0" encoding="utf-8"?>
<!-- Generator: Adobe Illustrator 23.1.0, SVG Export Plug-In . SVG Version: 6.00 Build 0)  -->
<!DOCTYPE svg PUBLIC "-//W3C//DTD SVG 1.1//EN" "http://www.w3.org/Graphics/SVG/1.1/DTD/svg11.dtd" [
	<!ENTITY ns_extend "http://ns.adobe.com/Extensibility/1.0/">
	<!ENTITY ns_ai "http://ns.adobe.com/AdobeIllustrator/10.0/">
	<!ENTITY ns_graphs "http://ns.adobe.com/Graphs/1.0/">
	<!ENTITY ns_vars "http://ns.adobe.com/Variables/1.0/">
	<!ENTITY ns_imrep "http://ns.adobe.com/ImageReplacement/1.0/">
	<!ENTITY ns_sfw "http://ns.adobe.com/SaveForWeb/1.0/">
	<!ENTITY ns_custom "http://ns.adobe.com/GenericCustomNamespace/1.0/">
	<!ENTITY ns_adobe_xpath "http://ns.adobe.com/XPath/1.0/">
]>
<svg version="1.1" id="Слой_1" xmlns:x="&ns_extend;" xmlns:i="&ns_ai;" xmlns:graph="&ns_graphs;"
	 xmlns="http://www.w3.org/2000/svg" xmlns:xlink="http://www.w3.org/1999/xlink" x="0px" y="0px"
	 viewBox="0 0 17.3710003 18.5939999" style="enable-background:new 0 0 17.3710003 18.5939999;" xml:space="preserve">
<style type="text/css">
	.st0{fill:#484848;}
</style>
<metadata>
	<sfw  xmlns="&ns_sfw;">
		<slices></slices>
		<sliceSourceBounds  bottomLeftOrigin="true" height="18.59375" width="17.3525543" x="0.0126808" y="-0.0008545">
			</sliceSourceBounds>
	</sfw>
</metadata>
<g>
	<path class="st0" d="M7.3525391,13.2637997c-0.3779297,0.0009766-0.6855469,0.3085938-0.6855469,0.6865234
		s0.3076172,0.6865234,0.6860352,0.6865234h3.6499023v0.3847656c0,0.3779297,0.3085938,0.6865234,0.6865234,0.6865234
		S12.375,15.3995419,12.375,15.0216122V6.3502254c0-0.378418-0.3076172-0.6860352-0.6855469-0.6860352
		s-0.6865234,0.3076172-0.6865234,0.6860352v0.3857422H7.3530273c-0.378418,0-0.6860352,0.3076172-0.6860352,0.6860352
		s0.3076172,0.6860352,0.6860352,0.6860352h3.6499023v0.800293h-1.480957c-0.378418,0-0.6860352,0.3076172-0.6860352,0.6855469
		s0.3076172,0.6865234,0.6860352,0.6865234h1.480957v0.7988281h-1.480957c-0.378418,0-0.6860352,0.3085938-0.6860352,0.6865234
		s0.3076172,0.6865234,0.6860352,0.6865234h1.480957v0.8007813L7.3525391,13.2637997z"/>
	<path class="st0" d="M15.2773438,0.0011044h-0.0009766c-0.8974609,0.0019531-1.6767578,0.5571289-1.9726563,1.3930664H0.6938477
		C0.315918,1.3966122,0.0102539,1.7061825,0.0126953,2.0841122C0.0131836,2.2554989,0.078125,2.4195614,0.1958008,2.5470028
		l2.7202148,2.8886719v10.2958984c-0.0004883,1.5712891,1.277832,2.8554688,2.8500977,2.8632813h5.9321289
		c1.5712891-0.0078125,2.8496094-1.2919922,2.8496094-2.8632813V2.1007137
		c-0.0009766-0.1928711,0.0742188-0.3745117,0.2099609-0.5112305c0.1367188-0.1367188,0.3183594-0.2119141,0.5117188-0.2124023
		h0.0009766c0.1923828,0,0.3740234,0.0751953,0.5097656,0.2114258c0.1367188,0.1367188,0.2119141,0.3178711,0.2119141,0.5126953
		v7.1499023c0,0.378418,0.3085938,0.6865234,0.6865234,0.6865234s0.6865234-0.3081055,0.6865234-0.6865234V2.101202
		C17.3652344,0.9503231,16.4287109,0.0084286,15.2773438,0.0011044z M4.1010742,4.6920223L2.284668,2.7657528h10.8969727v12.9658203
		c0.0009766,0.8183594-0.6630859,1.4873047-1.4804688,1.4902344H5.7695313
		c-0.8183594-0.0029297-1.4829102-0.671875-1.4814453-1.4902344V5.1632137
		C4.2880859,4.9874325,4.2216797,4.8204403,4.1010742,4.6920223z"/>
</g>
</svg>
