<svg xmlns="http://www.w3.org/2000/svg" width="13.939" height="13.939" viewBox="0 0 13.939 13.939">
  <g id="_023---Block-Call" data-name="023---Block-Call" transform="translate(-0.997 -1.059)">
    <path id="Shape" d="M6.776,9.221a5.632,5.632,0,0,1-1.7-3.2.478.478,0,0,1,.137-.4L6.29,4.546a.481.481,0,0,0,.068-.6L4.642,1.286a.481.481,0,0,0-.623-.175l-2.755,1.3A.479.479,0,0,0,1,2.886a13.317,13.317,0,0,0,4.055,8.055A13.313,13.313,0,0,0,13.11,15a.479.479,0,0,0,.478-.265l1.3-2.755a.481.481,0,0,0-.174-.622L12.046,9.639a.481.481,0,0,0-.6.067l-1.077,1.078a.478.478,0,0,1-.4.137,5.632,5.632,0,0,1-3.2-1.7Z" fill="#afafaf"/>
  </g>
</svg>
