<svg xmlns="http://www.w3.org/2000/svg" width="17.533" height="16.131" viewBox="0 0 17.533 16.131">
  <g id="Сгруппировать_80" data-name="Сгруппировать 80" transform="translate(-934 -1085)">
    <path id="Контур_55" data-name="Контур 55" d="M15.124-1.332H2.411A2.413,2.413,0,0,0,0,1.078v7.78a2.413,2.413,0,0,0,2.4,2.411V14.8l5.073-3.53h7.647a2.413,2.413,0,0,0,2.411-2.411V1.078a2.413,2.413,0,0,0-2.411-2.411Zm1.383,10.19a1.385,1.385,0,0,1-1.383,1.383H7.154L3.43,12.833V10.241H2.411A1.385,1.385,0,0,1,1.028,8.858V1.078A1.385,1.385,0,0,1,2.411-.3H15.124a1.385,1.385,0,0,1,1.383,1.383Zm0,0" transform="translate(933.999 1086.332)" fill="#afafaf"/>
    <rect id="Прямоугольник_198" data-name="Прямоугольник 198" width="8" height="1" rx="0.5" transform="translate(939 1088.631)" fill="#afafaf"/>
    <rect id="Прямоугольник_199" data-name="Прямоугольник 199" width="8" height="1" rx="0.5" transform="translate(939 1090.631)" fill="#afafaf"/>
    <rect id="Прямоугольник_200" data-name="Прямоугольник 200" width="8" height="1" rx="0.5" transform="translate(939 1092.631)" fill="#afafaf"/>
  </g>
</svg>
