<svg id="download" xmlns="http://www.w3.org/2000/svg" width="46.067" height="46.067" viewBox="0 0 46.067 46.067">
  <path id="Контур_78" data-name="Контур 78" d="M241.44,32.631a1.44,1.44,0,0,1-1.44-1.44V1.44a1.44,1.44,0,0,1,2.879,0V31.191A1.44,1.44,0,0,1,241.44,32.631Zm0,0" transform="translate(-218.406)" fill="#afafaf"/>
  <path id="Контур_79" data-name="Контур 79" d="M163.789,255.875a1.429,1.429,0,0,1-1.017-.422l-7.678-7.678a1.44,1.44,0,0,1,2.037-2.037l6.66,6.661,6.661-6.661a1.44,1.44,0,0,1,2.037,2.037l-7.678,7.678a1.443,1.443,0,0,1-1.021.422Zm0,0" transform="translate(-140.755 -223.244)" fill="#afafaf"/>
  <path id="Контур_80" data-name="Контур 80" d="M40.788,356.688H5.279A5.283,5.283,0,0,1,0,351.409v-8.638a1.44,1.44,0,0,1,2.879,0v8.638a2.4,2.4,0,0,0,2.4,2.4h35.51a2.4,2.4,0,0,0,2.4-2.4v-8.638a1.44,1.44,0,0,1,2.879,0v8.638A5.283,5.283,0,0,1,40.788,356.688Zm0,0" transform="translate(0 -310.621)" fill="#afafaf"/>
</svg>
