<svg id="_016-earth" data-name="016-earth" xmlns="http://www.w3.org/2000/svg" width="19.897" height="22.656" viewBox="0 0 19.897 22.656">
  <g id="Сгруппировать_65" data-name="Сгруппировать 65" transform="translate(0)">
    <path id="Контур_43" data-name="Контур 43" d="M47.764,16.531a11.3,11.3,0,0,0,0-15.957.664.664,0,0,0-.939,0L45.359,2.04A8.624,8.624,0,0,0,33.2,14.192l-1.4,1.4a.664.664,0,0,0,0,.938,11.254,11.254,0,0,0,8.652,3.279v1.518H35.812a.664.664,0,0,0,0,1.327h10.62a.664.664,0,0,0,0-1.327H41.786V19.653A11.22,11.22,0,0,0,47.764,16.531ZM43.451,3.308c-.134-.269-.441-.84-.33-1.119a.3.3,0,0,1,.079-.018A7.3,7.3,0,0,1,42.268,15.5c0-.071,0-.774,0-.774A3.867,3.867,0,0,1,42.941,14a4.532,4.532,0,0,0,1.841-3.254,1.164,1.164,0,0,0-.54-1.039,2.406,2.406,0,0,0-.8-.279,1.766,1.766,0,0,1-1.446-.978,1.441,1.441,0,0,0-1.237-.889,1.929,1.929,0,0,0-1.236.453,1.792,1.792,0,0,1-1.285.387,1.337,1.337,0,0,1-1.284-.756.577.577,0,0,1,.073-.632.243.243,0,0,1,.06-.048,1.531,1.531,0,0,1,.434.172,1.592,1.592,0,0,0,2.027-.124,2.231,2.231,0,0,1,1.918-.646,4.9,4.9,0,0,0,1.5-.139,1.367,1.367,0,0,0,.979-1.365A3.54,3.54,0,0,0,43.451,3.308ZM40.919,15.646a9.817,9.817,0,0,1-.34-3.216c0-.769-.7-1.167-1.2-1.458a3.464,3.464,0,0,1-.477-.306V9.908a1.286,1.286,0,0,0-.018-.219,2.859,2.859,0,0,0,1.417-.6c.2-.141.269-.19.4-.2.044.057.109.165.154.241a3.03,3.03,0,0,0,2.3,1.594c.1.021.217.047.3.072a3.468,3.468,0,0,1-1.42,2.234c-.584.547-1.088,1.019-1.088,1.669v.055C40.945,15.625,40.956,15.558,40.919,15.646ZM35.77,3.436a1.2,1.2,0,0,0-.554-.491,7.292,7.292,0,0,1,6.7-1.3,1.7,1.7,0,0,0-.141.7,3.54,3.54,0,0,0,.49,1.557c.118.236.409.787.343,1.043a3.69,3.69,0,0,1-1.139.1,3.482,3.482,0,0,0-2.861,1.035.246.246,0,0,1-.06.048,1.532,1.532,0,0,1-.434-.172,1.592,1.592,0,0,0-2.027.124,1.8,1.8,0,0,0-.521,1.386c-.1-.033-.208-.061-.305-.088a1.969,1.969,0,0,1-.563-.209c-.01-.035-.08-.41.734-1.731A2.012,2.012,0,0,0,35.77,3.436ZM32.493,8.629a7.265,7.265,0,0,1,1.591-4.544,2.223,2.223,0,0,1,.506.042,2.236,2.236,0,0,1-.29.613c-.849,1.378-1.1,2.25-.838,2.916a1.9,1.9,0,0,0,1.444,1,3.507,3.507,0,0,1,.527.174,14.3,14.3,0,0,1,2.153,1.145v.775c0,.72.649,1.1,1.132,1.375a2.886,2.886,0,0,1,.535.355,12.079,12.079,0,0,0,.362,3.448A7.31,7.31,0,0,1,32.493,8.629Zm.736,7.418.907-.909A8.624,8.624,0,0,0,46.3,2.972L47.279,2A9.956,9.956,0,0,1,33.23,16.046Z" transform="translate(-31.166 0)" fill="#484848"/>
  </g>
</svg>
