<svg id="curve-arrow" xmlns="http://www.w3.org/2000/svg" width="11" height="12.809" viewBox="0 0 11 12.809">
  <g id="Сгруппировать_87" data-name="Сгруппировать 87" transform="translate(0 0)">
    <path id="Контур_60" data-name="Контур 60" d="M47,9.07l-3.574,3.579a.544.544,0,1,1-.769-.768l2.654-2.657H39.865a3.717,3.717,0,0,1-3.71-3.7V.543a.543.543,0,1,1,1.086,0v4.98a2.628,2.628,0,0,0,2.624,2.615H45.3L42.652,5.491a.544.544,0,0,1,.769-.768L47,8.3A.543.543,0,0,1,47,9.07Z" transform="translate(-36.155 0)" fill="#afafaf"/>
  </g>
</svg>
