<svg xmlns="http://www.w3.org/2000/svg" width="15.499" height="14.5" viewBox="0 0 15.499 14.5">
  <g id="Сгруппировать_81" data-name="Сгруппировать 81" transform="translate(-987.417 -1080.78)">
    <g id="Сгруппировать_79" data-name="Сгруппировать 79" transform="translate(987.417 1080.78)">
      <g id="Сгруппировать_78" data-name="Сгруппировать 78">
        <path id="Контур_59" data-name="Контур 59" d="M46.1,98.784A1.549,1.549,0,0,0,44.949,96.2H41.941a10.017,10.017,0,0,0,.425-2.618v-.516A2.069,2.069,0,0,0,40.3,91h-.517a.516.516,0,0,0-.5.391L39,92.517c-.394,1.577-1.646,3.316-2.942,3.633a1.552,1.552,0,0,0-1.442-.982h-3.1a.517.517,0,0,0-.517.517v9.3a.517.517,0,0,0,.517.517h3.1a1.552,1.552,0,0,0,1.4-.883l1.775.592a5.67,5.67,0,0,0,1.8.292h4.328a1.55,1.55,0,0,0,1.441-2.121,1.549,1.549,0,0,0,.746-2.529,1.547,1.547,0,0,0,0-2.067Zm-10.97,5.166a.517.517,0,0,1-.517.517H32.033V96.2h2.583a.517.517,0,0,1,.517.517Zm8.783-4.65h1.033a.517.517,0,0,1,0,1.033H43.916a.517.517,0,1,0,0,1.033h1.033a.517.517,0,0,1,0,1.033H43.916a.517.517,0,0,0,0,1.033.517.517,0,1,1,0,1.033H39.588a4.64,4.64,0,0,1-1.471-.239l-1.951-.65V97.185a4.163,4.163,0,0,0,2.32-1.507A7.538,7.538,0,0,0,40,92.768l.184-.735H40.3a1.035,1.035,0,0,1,1.033,1.033v.516a8.175,8.175,0,0,1-.495,2.618H39.783a.517.517,0,1,0,0,1.033h5.166a.517.517,0,1,1,0,1.033H43.916a.517.517,0,0,0,0,1.033Z" transform="translate(-31 -91)" fill="#afafaf"/>
      </g>
    </g>
  </g>
</svg>
