<svg xmlns="http://www.w3.org/2000/svg" xmlns:xlink="http://www.w3.org/1999/xlink" width="34.16" height="30" viewBox="0 0 34.16 30">
  <defs>
    <clipPath id="clip-path">
      <rect width="34.16" height="30" fill="none"/>
    </clipPath>
  </defs>
  <g id="package" clip-path="url(#clip-path)">
    <g id="package-2" data-name="package" transform="translate(0 -27.676)">
      <g id="Сгруппировать_68" data-name="Сгруппировать 68" transform="translate(0 27.676)">
        <path id="Контур_49" data-name="Контур 49" d="M.354,40.753,4.516,38,.354,35.217A.746.746,0,0,1,0,34.55a.707.707,0,0,1,.393-.628L10.484,27.8a.746.746,0,0,1,.746-.039l5.85,3.023,5.85-3.023a.746.746,0,0,1,.746.039l10.09,6.125a.707.707,0,0,1,.393.628.746.746,0,0,1-.353.667L29.6,38l4.2,2.748a.785.785,0,0,1,.353.667.864.864,0,0,1-.432.667l-4.869,2.905v4.476a3.062,3.062,0,0,1-1.492,2.709l-8.756,5.1a3.062,3.062,0,0,1-1.531.393,3.1,3.1,0,0,1-1.57-.393l-8.716-5.1A2.984,2.984,0,0,1,5.3,49.469V44.954L.472,42.088A.864.864,0,0,1,.04,41.42.746.746,0,0,1,.354,40.753ZM10.916,29.367,2.239,34.589l3.73,2.474,9.462-5.379Zm21.005,5.222-8.677-5.222-4.515,2.317,9.423,5.379Zm0,6.792-3.769-2.474-9.423,5.34,4.515,2.395ZM17.865,55.908l8.716-5.065a1.571,1.571,0,0,0,.707-1.374V45.936l-3.651,2.277a.667.667,0,0,1-.393.118.629.629,0,0,1-.353-.118l-5.026-2.631V55.908ZM26.582,38l-9.5-5.418L7.539,38l9.541,5.379Zm-19,12.839,8.716,5.042v-10.3L11.23,48.213a.628.628,0,0,1-.353.118.432.432,0,0,1-.314-.118L6.872,45.9v3.573A1.571,1.571,0,0,0,7.579,50.843Zm3.337-4.2,4.515-2.395-9.462-5.34-3.73,2.474Z" transform="translate(0 -27.676)" fill="#afafaf"/>
      </g>
    </g>
  </g>
</svg>
