<svg fill="#ffd736" id="Компонент_1_1" data-name="Компонент 1 – 1" xmlns="http://www.w3.org/2000/svg" width="15.867" height="15.179" viewBox="0 0 15.867 15.179">
  <path id="_001-favourite" data-name="001-favourite" d="M15.824,6.234a1.122,1.122,0,0,0-.982-.7l-4.107-.6L8.9,1.219A1.122,1.122,0,0,0,7.933.5a1.122,1.122,0,0,0-.966.718L5.13,4.94l-4.107.6a1.122,1.122,0,0,0-.982.7A1.122,1.122,0,0,0,.426,7.375l2.972,2.9-.7,4.09A1.182,1.182,0,0,0,2.9,15.369a.889.889,0,0,0,.694.311A1.432,1.432,0,0,0,4.26,15.5l3.673-1.931L11.606,15.5a1.433,1.433,0,0,0,.662.182h0a.889.889,0,0,0,.694-.311,1.181,1.181,0,0,0,.207-1.007l-.7-4.09,2.971-2.9a1.122,1.122,0,0,0,.385-1.141Zm-1.033.475L11.644,9.776a.465.465,0,0,0-.134.411l.743,4.331a.569.569,0,0,1,0,.231.573.573,0,0,1-.218-.075L8.149,12.63a.465.465,0,0,0-.433,0L3.828,14.675a.574.574,0,0,1-.219.075.571.571,0,0,1,0-.231l.743-4.331a.465.465,0,0,0-.134-.411L1.075,6.709a.573.573,0,0,1-.139-.185.572.572,0,0,1,.221-.068l4.349-.632a.465.465,0,0,0,.35-.254L7.8,1.63a.572.572,0,0,1,.133-.189.573.573,0,0,1,.133.189l1.945,3.94a.465.465,0,0,0,.35.254l4.348.632a.571.571,0,0,1,.221.068.573.573,0,0,1-.139.185Zm0,0" transform="translate(0 -0.5)" fill="#ffd736"/>
  <path id="Контур_54" data-name="Контур 54" d="M1968.879,903.6l4.441-.919.664-.97,1.531-3.165h.459l.817.664,1.531,3.471,4.7.919h.306l-.919,1.786-2.348,1.991.715,5.206-1.225-.459-3.573-1.786-4.237,2.246h-.459V910.7l.459-3.318-3.318-3.318Z" transform="translate(-1968 -897.867)" fill="#ffd736"/>
</svg>
