<svg xmlns="http://www.w3.org/2000/svg" width="17.794" height="17" viewBox="0 0 17.794 17"><g transform="translate(-164.293 -1.815)"><g transform="translate(170.002 8.899)"><path d="M346.3,214.42h-9.241a1.779,1.779,0,0,0-1.422,1.741v6.4a1.779,1.779,0,0,0,1.777,1.777h8.53a1.779,1.779,0,0,0,1.777-1.777v-6.4A1.779,1.779,0,0,0,346.3,214.42Zm-3.832,5.459.274,1.919a.353.353,0,0,1-.083.283.357.357,0,0,1-.269.123h-1.421a.354.354,0,0,1-.352-.405l.274-1.919a1.778,1.778,0,1,1,1.577,0Z" transform="translate(-335.633 -214.42)" fill="#999"/></g><path d="M164.293,6.436V8.917h2.133V6.436a2.488,2.488,0,1,1,4.976,0V8.917h2.133V6.436a4.621,4.621,0,1,0-9.241,0Z" fill="#999"/></g></svg>