<svg xmlns="http://www.w3.org/2000/svg" width="10.608" height="14.976" viewBox="0 0 10.608 14.976"><g transform="translate(-74.666)"><g transform="translate(74.666)"><path d="M84.026,6.272V4.056a4.056,4.056,0,0,0-8.112,0V6.272A1.562,1.562,0,0,0,74.666,7.8v5.616a1.562,1.562,0,0,0,1.56,1.56h7.488a1.562,1.562,0,0,0,1.56-1.56V7.8A1.562,1.562,0,0,0,84.026,6.272Zm-3.364,4.792.241,1.684A.31.31,0,0,1,80.83,13a.314.314,0,0,1-.236.108H79.346a.311.311,0,0,1-.309-.356l.241-1.684a1.561,1.561,0,1,1,1.384,0ZM82.154,6.24H77.786V4.056a2.184,2.184,0,0,1,4.368,0Z" transform="translate(-74.666)" fill="#af1111"/></g></g></svg>