<svg xmlns="http://www.w3.org/2000/svg" width="15.066" height="10.093" viewBox="0 0 15.066 10.093"><g transform="translate(0 -84.498)"><path d="M20.434,360.5H34.286l-.04.4a1.646,1.646,0,0,1-1.545,1.57H22.019a1.653,1.653,0,0,1-1.544-1.562C20.474,360.9,20.479,360.957,20.434,360.5Z" transform="translate(-19.832 -267.882)" fill="#999"/><path d="M15.057,86.567l-.516,5.17H.514l-.5-5.06c-.135-1.187,1.145-1.735,1.736-1.056C3.168,87.26,3.32,87.583,3.8,87.526a.72.72,0,0,0,.414-.2c2.894-2.777,2.705-2.6,2.735-2.621A.959.959,0,0,1,8.131,84.7c2.925,2.458,2.789,2.349,2.854,2.387a.69.69,0,0,0,.87-.133c1.625-1.6,1.522-1.5,1.552-1.522A1.073,1.073,0,0,1,15.057,86.567Z" transform="translate(0 0)" fill="#999"/></g></svg>